<svg width="60" height="66" viewBox="0 0 60 66" fill="none" xmlns="http://www.w3.org/2000/svg">
<path d="M35.1819 48.8009C30.4092 47.0282 25.5001 46.7555 21.0001 47.9827C17.8638 48.8009 14.8638 50.4373 12.1365 52.4827L10.2274 54.1191L9.68193 54.6646L10.9092 55.7554C11.0456 55.7554 11.0456 55.8918 11.1819 56.0282C11.4547 56.3009 11.7274 56.4373 12.1365 56.71L12.9546 57.2555L13.7728 56.5736C13.9092 56.4373 14.1819 56.1646 14.4547 56.0282C16.9092 53.9827 19.6365 52.6191 22.5001 51.9373C26.1819 50.9827 30.1365 51.1191 34.091 52.6191C37.3637 53.8464 44.0456 55.3464 52.091 51.9373L52.3638 51.8009L52.7728 51.3918C52.7728 51.2555 52.9092 51.2555 53.0456 51.1191C53.7274 50.3009 54.4092 49.4827 54.9547 48.5282L57.6819 44.3009L53.3183 46.7554C46.9092 50.3009 41.0456 50.9827 35.1819 48.8009Z" fill="#155EEF"/>
<path d="M16.5 34.074C20.1818 33.1194 24.1364 33.2558 28.0909 34.7558C32.4546 36.3922 43.6364 38.7103 56.1819 27.3922L58.2273 25.3467L58.3637 25.2103L58.9091 24.6649L58.6364 23.9831C58.5 23.4376 58.2273 22.7558 57.9546 22.074L57.2727 20.1649L55.9091 21.5285C55.7727 21.8012 55.5 21.9376 55.2273 22.2103C49.2273 28.3467 39.9546 34.6194 29.3182 30.8013C24.5455 29.0285 19.6364 28.7558 15.1364 29.9831C10.7728 31.2103 6.95457 33.5285 3.40911 36.8012V36.6649L1.36366 38.8467C1.36366 38.9831 1.22732 38.9831 1.09095 39.1194L0.681839 39.5285L0.818211 40.074C0.954575 40.7558 1.22729 41.4376 1.36366 42.1194L2.18185 44.3012L3.54548 42.5285C3.68185 42.2558 3.95457 42.1194 4.09093 41.8467C6.95457 39.2558 10.9091 35.574 16.5 34.074Z" fill="#155EEF"/>
<path d="M3.27276 31.6192C6.40912 28.3465 9.95455 26.301 13.7727 25.2101C17.4546 24.2556 21.4091 24.3919 25.3636 25.8919C37.6364 30.3919 48.2728 23.0283 52.9091 19.0738L54.6818 17.3011L55.3636 16.7556L54.8182 15.9374C54.4091 15.5283 54.1364 14.9829 53.7273 14.4374L52.9091 13.3465L51.9546 14.301C51.8182 14.4374 51.5455 14.7101 51.4091 14.8465C45.6818 20.301 36.8182 25.892 26.7273 22.0738C21.9546 20.3011 17.0455 20.0283 12.5455 21.2556C9.68184 22.0738 6.95455 23.4374 4.22728 25.2101L1.36364 27.5283C1.09091 27.8011 0.954545 27.9374 0.681818 28.2101L0.409116 28.4828V28.892C0.272752 29.8465 0.272736 30.8011 0.136372 31.6192L0 35.0283L2.3182 32.5738C2.59093 32.301 2.86367 31.892 3.27276 31.6192Z" fill="#155EEF"/>
<path d="M39.1364 58.0737L38.8636 58.8919L39.1364 58.0737C38.7273 57.9374 38.4546 57.801 38.0455 57.6646C33.2727 55.8919 28.3636 55.6192 23.8636 56.8465C22.9091 57.1192 21.9546 57.3919 21 57.801L17.7273 59.301L16.9091 59.7101L19.6364 60.6646C20.4546 60.9374 21.2727 61.2101 22.0909 61.4828L22.5 61.6192L22.9091 61.4828C23.3182 61.3465 23.7273 61.0737 24.1364 61.0737C24.4091 61.0737 24.6818 60.9374 24.9545 60.801C28.2273 59.9828 31.7727 59.9828 35.5909 61.2101C36 61.3464 36.2727 61.4828 36.6818 61.6192L37.3636 61.8919L37.7727 61.7555C38.7273 61.4828 39.8182 61.2101 40.6364 60.801L44.4545 59.4374L40.5 58.4828C40.0909 58.3464 39.5455 58.2101 39.1364 58.0737Z" fill="#155EEF"/>
<path d="M60 29.8466L57.9546 31.892C57.6818 32.1647 57.4091 32.4375 57.1364 32.7102C51.5455 38.0284 42.5455 43.7556 32.4546 39.9375C27.6819 38.1647 22.7728 37.892 18.2728 39.1193C14.0455 40.3466 10.2273 42.5284 6.8182 45.8011L5.04549 47.7102L4.50005 48.392L5.04549 49.2102C5.45458 49.7557 5.72733 50.1648 6.00005 50.7102L6.8182 51.9375L7.77276 50.7102C7.90913 50.5739 8.18185 50.3011 8.31821 50.1647C11.5909 46.6193 15.1364 44.4375 19.2273 43.3466C22.9091 42.392 26.8637 42.5284 30.8182 44.0284C34.2273 45.2556 37.7728 45.6648 41.3182 45.2557C47.591 44.5739 53.8637 41.0284 58.5 37.0739C58.7728 36.8011 59.0455 36.6648 59.3182 36.392L59.7273 35.9829V35.5739C59.7273 34.7557 59.8637 33.8011 59.8637 32.983L60 29.8466Z" fill="#155EEF"/>
<path d="M8.18207 17.3013L7.773 16.4832L8.18207 17.3013C9.00025 16.8923 9.95483 16.6195 10.773 16.3468C14.4548 15.3922 18.4094 15.5286 22.3639 17.0286C24.9548 17.9831 27.5457 18.3922 30.4094 18.3922C36.1366 18.3922 41.8639 16.3468 47.1821 12.3922L49.2275 10.7559L49.9094 10.2104L48.6821 9.25586C48.273 8.84677 47.7275 8.43769 47.1821 8.16496L46.3639 7.61952L45.6821 8.16496C45.4093 8.30133 45.273 8.57405 45.0003 8.71041C37.773 14.165 30.5457 15.665 23.7276 13.0741C18.8185 11.3013 13.9094 10.8922 9.00026 12.3922C8.59117 12.5286 8.18208 12.665 7.63662 12.8013L7.36392 12.9377L6.95481 13.3468C6.95481 13.4831 6.81847 13.4831 6.6821 13.6195C6.13665 14.4377 5.45481 15.1195 4.90935 15.9377L2.31845 19.8922L6.54573 17.7104C7.22755 17.7104 7.77298 17.4377 8.18207 17.3013Z" fill="#155EEF"/>
<path d="M19.3637 8.02838L19.7727 8.16476C21.5455 8.84657 24.2728 9.52839 27.6818 9.52839C31.2273 9.52839 34.6364 8.7102 38.0455 7.34657L42.2727 5.30111L39.4091 4.34659C38.5909 4.07386 37.7727 3.80114 36.8182 3.66477H36.4091L36 3.8011C35.5909 3.93747 35.1818 4.21023 34.7727 4.34659C30.6818 5.84659 26.5909 6.11932 22.6364 5.02841C22.2273 4.89204 21.8182 4.75566 21.4091 4.61929L21 4.48292L20.5909 4.61929C19.7727 4.89202 18.9546 5.16476 18.1364 5.57385L15 6.93749L18.2728 7.89201C18.5455 7.75565 18.9546 7.89202 19.3637 8.02838Z" fill="#155EEF"/>
</svg>
