<svg width="62" height="66" viewBox="0 0 62 66" fill="none" xmlns="http://www.w3.org/2000/svg">
<path d="M36.2666 48.8009C31.4285 47.0282 26.4522 46.7555 21.8905 47.9827C18.7112 48.8009 15.6701 50.4373 12.9055 52.4827L10.9702 54.1191L10.4173 54.6645L11.6614 55.7554C11.7996 55.7554 11.7996 55.8918 11.9379 56.0282C12.2143 56.3009 12.4908 56.4373 12.9055 56.71L13.7348 57.2554L14.5642 56.5736C14.7025 56.4373 14.9789 56.1645 15.2554 56.0282C17.7436 53.9827 20.5082 52.6191 23.4111 51.9373C27.1433 50.9827 31.152 51.1191 35.1608 52.6191C38.4783 53.8464 45.2517 55.3464 53.4073 51.9373L53.6838 51.8009L54.0985 51.3918C54.0985 51.2555 54.2368 51.2554 54.375 51.1191C55.0661 50.3009 55.7573 49.4827 56.3102 48.5282L59.0748 44.3009L54.6514 46.7554C48.1545 50.3009 42.2106 50.9827 36.2666 48.8009Z" fill="#155EEF"/>
<path d="M17.3288 34.074C21.061 33.1195 25.0698 33.2558 29.0785 34.7558C33.5019 36.3922 44.8369 38.7104 57.5542 27.3922L59.6277 25.3468L59.7659 25.2104L60.3188 24.6649L60.0424 23.9831C59.9041 23.4377 59.6277 22.7559 59.3512 22.074L58.66 20.1649L57.2777 21.5286C57.1395 21.8013 56.863 21.9376 56.5866 22.2104C50.5044 28.3467 41.1046 34.6195 30.3226 30.8013C25.4844 29.0286 20.5081 28.7558 15.9465 29.9831C11.5231 31.2104 7.65257 33.5286 4.05855 36.8013V36.6649L1.98507 38.8468C1.98507 38.9831 1.84687 38.9831 1.70863 39.1195L1.29391 39.5286L1.43215 40.074C1.57039 40.7558 1.84684 41.4377 1.98507 42.1195L2.81447 44.3013L4.19679 42.5286C4.33502 42.2559 4.61147 42.1195 4.74971 41.8468C7.65257 39.2559 11.6613 35.574 17.3288 34.074Z" fill="#155EEF"/>
<path d="M3.92033 31.6192C7.09966 28.3465 10.6937 26.301 14.5641 25.2101C18.2964 24.2555 22.3051 24.3919 26.3138 25.8919C38.7547 30.3919 49.5368 23.0283 54.2366 19.0737L56.0336 17.301L56.7248 16.7555L56.1719 15.9374C55.7572 15.5283 55.4807 14.9828 55.066 14.4374L54.2366 13.3464L53.269 14.301C53.1308 14.4374 52.8543 14.7101 52.7161 14.8464C46.9104 20.301 37.9253 25.8919 27.6961 22.0737C22.858 20.301 17.8817 20.0283 13.3201 21.2556C10.4172 22.0737 7.65256 23.4374 4.88793 25.2101L1.98505 27.5283C1.70859 27.801 1.57036 27.9374 1.2939 28.2101L1.01746 28.4828V28.8919C0.879226 29.8465 0.879209 30.801 0.740977 31.6192L0.602737 35.0283L2.95269 32.5737C3.22916 32.301 3.50564 31.8919 3.92033 31.6192Z" fill="#155EEF"/>
<path d="M40.2752 58.0738L39.9987 58.892L40.2752 58.0738C39.8605 57.9374 39.5841 57.801 39.1694 57.6646C34.3313 55.8919 29.3549 55.6192 24.7932 56.8465C23.8256 57.1192 22.858 57.3919 21.8904 57.801L18.5728 59.301L17.7435 59.7101L20.5081 60.6647C21.3375 60.9374 22.1669 61.2101 22.9963 61.4829L23.4109 61.6192L23.8257 61.4829C24.2403 61.3465 24.655 61.0737 25.0697 61.0737C25.3462 61.0737 25.6227 60.9374 25.8991 60.801C29.2167 59.9829 32.8107 59.9828 36.6812 61.2101C37.0959 61.3465 37.3724 61.4829 37.7871 61.6192L38.4782 61.8919L38.8929 61.7556C39.8605 61.4828 40.9664 61.2101 41.7958 60.801L45.6662 59.4374L41.6575 58.4828C41.2428 58.3465 40.6899 58.2101 40.2752 58.0738Z" fill="#155EEF"/>
<path d="M61.4247 29.8466L59.3512 31.892C59.0747 32.1647 58.7983 32.4375 58.5218 32.7102C52.8543 38.0284 43.731 43.7556 33.5019 39.9375C28.6638 38.1647 23.6875 37.892 19.1258 39.1193C14.8406 40.3466 10.9701 42.5284 7.51434 45.8011L5.71735 47.7102L5.16443 48.392L5.71735 49.2102C6.13204 49.7557 6.40852 50.1648 6.68498 50.7102L7.51434 51.9375L8.48198 50.7102C8.62021 50.5739 8.89667 50.3011 9.0349 50.1647C12.3525 46.6193 15.9465 44.4375 20.0934 43.3466C23.8257 42.392 27.8344 42.5284 31.8431 44.0284C35.2989 45.2556 38.8929 45.6648 42.487 45.2557C48.8456 44.5739 55.2043 41.0284 59.9042 37.0739C60.1806 36.8011 60.457 36.6648 60.7335 36.392L61.1482 35.9829V35.5738C61.1482 34.7557 61.2865 33.8011 61.2865 32.9829L61.4247 29.8466Z" fill="#155EEF"/>
<path d="M8.89689 17.3013L8.48221 16.4831L8.89689 17.3013C9.72627 16.8922 10.6939 16.6195 11.5233 16.3468C15.2556 15.3922 19.2643 15.5286 23.273 17.0286C25.8994 17.9831 28.5258 18.3922 31.4287 18.3922C37.2344 18.3922 43.0401 16.3468 48.4311 12.3922L50.5046 10.7559L51.1958 10.2104L49.9517 9.25585C49.537 8.84675 48.9841 8.43768 48.4311 8.16495L47.6017 7.61951L46.9106 8.16495C46.6341 8.30132 46.4959 8.57404 46.2194 8.7104C38.8932 14.1649 31.5669 15.665 24.6553 13.0741C19.679 11.3013 14.7026 10.8922 9.72628 12.3922C9.31159 12.5286 8.89689 12.6649 8.34397 12.8013L8.06753 12.9377L7.65281 13.3468C7.65281 13.4831 7.5146 13.4831 7.37637 13.6195C6.82344 14.4377 6.13226 15.1195 5.57933 15.9377L2.95294 19.8922L7.23813 17.7104C7.92929 17.7104 8.48219 17.4377 8.89689 17.3013Z" fill="#155EEF"/>
<path d="M20.2316 8.02841L20.6463 8.16478C22.4433 8.8466 25.208 9.52841 28.6638 9.52841C32.2578 9.52841 35.7136 8.71022 39.1694 7.34659L43.4545 5.30113L40.5517 4.34661C39.7223 4.07389 38.8929 3.80116 37.9253 3.66479H37.5106L37.0959 3.80113C36.6812 3.93749 36.2665 4.21025 35.8518 4.34661C31.7049 5.84661 27.5579 6.11934 23.5492 5.02843C23.1345 4.89207 22.7198 4.75568 22.3051 4.61932L21.8904 4.48294L21.4757 4.61932C20.6463 4.89204 19.817 5.16479 18.9876 5.57388L15.8082 6.93751L19.1258 7.89203C19.4023 7.75567 19.8169 7.89204 20.2316 8.02841Z" fill="#155EEF"/>
</svg>
