<svg width="43" height="43" viewBox="0 0 43 43" fill="none" xmlns="http://www.w3.org/2000/svg">
<g clip-path="url(#clip0_15_894)">
<path d="M1.33168 37.625H41.667C42.4007 37.625 43 37.0257 43 36.2933V6.70668C43 5.97437 42.4007 5.375 41.6683 5.375H1.33168C0.59928 5.375 0 5.97428 0 6.70668V36.292C0 37.0257 0.59928 37.625 1.33168 37.625ZM2.6875 8.0625H40.3125V34.9375H2.6875V8.0625Z" fill="white"/>
<path d="M6.71871 12.0977C7.46081 12.0977 8.06241 11.4961 8.06241 10.754C8.06241 10.0119 7.46081 9.41028 6.71871 9.41028C5.9766 9.41028 5.375 10.0119 5.375 10.754C5.375 11.4961 5.9766 12.0977 6.71871 12.0977Z" fill="white"/>
<path d="M10.7779 12.0977C11.52 12.0977 12.1216 11.4961 12.1216 10.754C12.1216 10.0119 11.52 9.41028 10.7779 9.41028C10.0358 9.41028 9.4342 10.0119 9.4342 10.754C9.4342 11.4961 10.0358 12.0977 10.7779 12.0977Z" fill="white"/>
<path d="M14.8403 12.0977C15.5824 12.0977 16.184 11.4961 16.184 10.754C16.184 10.0119 15.5824 9.41028 14.8403 9.41028C14.0982 9.41028 13.4966 10.0119 13.4966 10.754C13.4966 11.4961 14.0982 12.0977 14.8403 12.0977Z" fill="white"/>
<path d="M37.625 13.4375H5.375V16.125H37.625V13.4375Z" fill="white"/>
<path d="M15.6646 18.8018C11.9545 18.8018 8.94592 21.8104 8.94592 25.5206C8.94592 29.2307 11.9546 32.2393 15.6646 32.2393C19.3747 32.2393 22.3834 29.2307 22.3834 25.5206C22.3833 21.8091 19.3747 18.8018 15.6646 18.8018ZM15.6646 30.8956C12.7003 30.8956 10.2896 28.4848 10.2896 25.5206C10.2896 22.7081 12.4679 20.4197 15.2225 20.1899V25.7556H21.0154C20.8891 28.6085 18.5483 30.8956 15.6646 30.8956ZM16.5662 24.4119V20.2356C18.7377 20.6064 20.4712 22.2687 20.9213 24.4119H16.5662Z" fill="white"/>
<path d="M34.0545 27.6866H25.0366V29.0304H34.0545V27.6866Z" fill="white"/>
<path d="M34.0545 20.679H25.0366V22.0227H34.0545V20.679Z" fill="white"/>
<path d="M34.0545 24.2882H25.0366V25.632H34.0545V24.2882Z" fill="white"/>
</g>
<defs>
<clipPath id="clip0_15_894">
<rect width="43" height="43" fill="white"/>
</clipPath>
</defs>
</svg>
