<svg width="42" height="42" viewBox="0 0 42 42" fill="none" xmlns="http://www.w3.org/2000/svg">
<g clip-path="url(#clip0_15_879)">
<path d="M37.6772 0H4.3273C3.86685 0 3.49353 0.373324 3.49353 0.833766V5.52357C3.49353 5.80125 3.62978 6.04644 3.83847 6.19795C3.84011 6.19918 3.84052 6.20041 3.84241 6.20181L14.6449 13.9251V20.5831C14.6449 21.0436 15.0182 21.4169 15.4786 21.4169H26.5258C26.9862 21.4169 27.3595 21.0436 27.3595 20.5831V13.9251L38.162 6.20181C38.1652 6.19951 38.1671 6.19721 38.1699 6.19492C38.3763 6.04316 38.5109 5.79928 38.5109 5.52357V0.833766C38.5109 0.373324 38.1376 0 37.6772 0ZM25.6921 19.7494H16.3124V14.33H25.692V19.7494H25.6921ZM26.2585 12.6625H15.746L6.92695 6.35734H35.0774L26.2585 12.6625ZM36.8434 4.68981H5.16106V1.66753H36.8434V4.68981Z" fill="white"/>
<path d="M22.0636 27.0995H21.7946C21.6859 26.7653 21.3723 26.5236 21.0019 26.5236C20.6113 26.5236 20.2844 26.7926 20.1939 27.1552C18.3018 27.4277 16.9113 28.6838 16.9113 30.2378V30.2843C16.9113 31.8313 18.2891 33.0833 20.1681 33.3634V36.4105H19.9402C19.109 36.4105 18.5788 35.975 18.5788 35.6753V35.6595C18.5788 35.199 18.2055 34.8257 17.745 34.8257C17.2846 34.8257 16.9113 35.199 16.9113 35.6595V35.6753C16.9113 37.0227 18.2418 38.0781 19.9402 38.0781H20.1681V38.3003C20.1681 38.7607 20.5415 39.1341 21.0019 39.1341C21.4623 39.1341 21.8357 38.7607 21.8357 38.3003V38.019C23.7148 37.7389 25.0925 36.4869 25.0925 34.9399V34.8934C25.0925 33.3463 23.7147 32.0944 21.8357 31.8142V28.7671H22.0636C22.8948 28.7671 23.425 29.2026 23.425 29.5024V29.7164C23.425 30.1768 23.7984 30.5501 24.2588 30.5501C24.7192 30.5501 25.0926 30.1768 25.0926 29.7164V29.5024C25.0925 28.1549 23.7619 27.0995 22.0636 27.0995ZM20.1681 31.663C19.2616 31.4505 18.5788 30.8968 18.5788 30.2843V30.2378C18.5788 29.6252 19.2616 29.0715 20.1681 28.8591V31.663ZM23.4249 34.8934V34.9399C23.4249 35.5524 22.7421 36.1061 21.8356 36.3186V33.5147C22.7421 33.7271 23.4249 34.2808 23.4249 34.8934Z" fill="white"/>
<path d="M21.0025 23.6576C15.9455 23.6576 11.8312 27.7718 11.8312 32.8288C11.8312 37.8857 15.9455 42 21.0025 42C26.0595 42 30.1738 37.8858 30.1738 32.8288C30.1738 27.7717 26.0595 23.6576 21.0025 23.6576ZM21.0025 40.3325C16.8649 40.3325 13.4988 36.9663 13.4988 32.8288C13.4988 28.6912 16.8649 25.325 21.0025 25.325C25.1401 25.325 28.5062 28.6912 28.5062 32.8288C28.5062 36.9663 25.1401 40.3325 21.0025 40.3325Z" fill="white"/>
</g>
<defs>
<clipPath id="clip0_15_879">
<rect width="42" height="42" fill="white"/>
</clipPath>
</defs>
</svg>
