<svg width="62" height="66" viewBox="0 0 62 66" fill="none" xmlns="http://www.w3.org/2000/svg">
<path d="M50.8036 15.2226C50.2061 14.6332 49.6087 14.0438 49.0112 13.4544C47.2188 11.5684 45.3069 9.68231 42.917 8.50352C40.1687 7.08899 37.1814 7.44261 34.1941 7.44261C29.6533 7.44261 18.3015 7.44261 11.6099 7.44261L16.1506 13.4544C24.3956 13.4544 37.3009 13.4544 43.2755 13.4544C45.7849 13.4544 47.9358 13.9259 49.9671 15.2226C50.3256 15.3405 50.6841 15.3405 50.8036 15.2226Z" fill="#66C61C"/>
<path d="M55.8223 24.8886C55.2248 24.2992 54.6273 23.7098 54.0299 23.1204C52.2375 21.2344 50.3256 19.3483 47.9357 18.1695C45.1874 16.755 42.2001 17.1086 39.2127 17.1086C35.2695 17.1086 25.8295 17.1086 19.1379 17.1086L23.6786 23.1204C31.8042 23.1204 42.917 23.1204 48.4137 23.1204C50.923 23.1204 53.0739 23.5919 55.1053 24.8886C55.3443 25.0065 55.5833 25.0065 55.8223 24.8886Z" fill="#4CA30D"/>
<path d="M61.4384 34.3185C60.8409 33.7291 60.2435 33.1397 59.646 32.5504C57.8536 30.6643 55.9417 28.7782 53.5519 27.5995C50.8035 26.1849 47.8162 26.5386 44.8289 26.5386C41.1246 26.5386 32.9991 26.5386 26.427 26.5386L30.9677 32.5504C38.8542 32.5504 48.8916 32.5504 53.9103 32.5504C56.4197 32.5504 58.5706 33.0219 60.6019 34.3185C60.9604 34.4364 61.1994 34.5543 61.4384 34.3185Z" fill="#3B7C0F"/>
<path d="M11.1319 50.2322C11.7294 50.8216 12.3269 51.411 12.9243 52.0004C14.7167 53.8864 16.6286 55.7725 19.0185 56.9512C21.7668 58.3658 24.7541 58.0121 27.7414 58.0121H50.3256L45.7849 52.0004C37.5399 52.0004 24.6346 52.0004 18.66 52.0004C16.1506 52.0004 13.9998 51.5289 11.9684 50.2322C11.6099 50.1143 11.3709 50.1143 11.1319 50.2322Z" fill="#66C61C"/>
<path d="M6.11316 40.5664C6.71062 41.1558 7.30809 41.7452 7.90555 42.3346C9.69795 44.2207 11.6098 46.1067 13.9997 47.2855C16.748 48.7 19.7354 48.3464 22.7227 48.3464H42.7975L38.2568 42.3346C30.1312 42.3346 19.0184 42.3346 13.5217 42.3346C11.0124 42.3346 8.86149 41.8631 6.83011 40.5664C6.59112 40.4486 6.35215 40.4486 6.11316 40.5664Z" fill="#4CA30D"/>
<path d="M0.61644 31.0179C1.2139 31.6072 1.81137 32.1966 2.40883 32.786C4.20123 34.6721 6.11312 36.5581 8.50298 37.7369C11.2513 39.1515 14.2386 38.7978 17.226 38.7978H35.6279L31.0872 32.786C23.2006 32.786 13.1632 32.786 8.1445 32.786C5.63515 32.786 3.48427 32.3145 1.45289 31.0179C1.09441 30.9 0.855426 30.9 0.61644 31.0179Z" fill="#3B7C0F"/>
</svg>
