<svg width="62" height="60" viewBox="0 0 62 60" fill="none" xmlns="http://www.w3.org/2000/svg">
<g clip-path="url(#clip0_9_572)">
<path d="M38.325 5.15212L32.4906 3.7384L27.5738 20.3317L23.1348 5.35116L17.3002 6.76488L22.0963 22.9503L10.1505 12.148L5.87932 16.0103L18.9823 27.8592L2.66461 23.9054L1.10126 29.1814L18.9304 33.5014C18.7263 32.7053 18.6183 31.8757 18.6183 31.0233C18.6183 24.99 24.027 20.099 30.699 20.099C37.371 20.099 42.7797 24.99 42.7797 31.0233C42.7797 31.8702 42.6731 32.6947 42.4715 33.4861L58.6749 37.4122L60.2381 32.1362L42.3381 27.799L58.6569 23.8449L57.0935 18.5689L39.1942 22.9059L51.1399 12.1037L46.8687 8.24133L33.9475 19.9258L38.325 5.15212Z" fill="#FF4405"/>
<path d="M42.4544 33.5476C41.9542 35.4599 40.8981 37.178 39.4491 38.5544L51.1877 49.1696L55.4589 45.3072L42.4544 33.5476Z" fill="#FF4405"/>
<path d="M39.3306 38.6654C37.864 40.0199 36.0107 41.0307 33.9324 41.5516L38.2039 55.9669L44.0383 54.5532L39.3306 38.6654Z" fill="#FF4405"/>
<path d="M33.7145 41.6043C32.7502 41.8285 31.7395 41.9476 30.698 41.9476C29.5821 41.9476 28.5016 41.8108 27.4758 41.5547L23.2004 55.9832L29.0349 57.3968L33.7145 41.6043Z" fill="#FF4405"/>
<path d="M27.2695 41.5015C25.2229 40.9547 23.4025 39.931 21.9659 38.5727L10.1984 49.2138L14.4696 53.0762L27.2695 41.5015Z" fill="#FF4405"/>
<path d="M21.869 38.4786C20.457 37.1117 19.4285 35.4166 18.939 33.5337L2.68269 37.4726L4.24603 42.7486L21.869 38.4786Z" fill="#FF4405"/>
</g>
<defs>
<clipPath id="clip0_9_572">
<rect width="60.8219" height="55" fill="white" transform="translate(0.630142 2.5)"/>
</clipPath>
</defs>
</svg>
