<svg width="62" height="66" viewBox="0 0 62 66" fill="none" xmlns="http://www.w3.org/2000/svg">
<path d="M59.9521 33.0681C59.9521 48.7891 47.0275 61.5681 31.0411 61.5681C15.0547 61.5681 2.13014 48.7891 2.13014 33.0681C2.13014 17.3472 15.0547 4.56812 31.0411 4.56812C47.0275 4.56812 59.9521 17.3472 59.9521 33.0681Z" stroke="#6927DA" stroke-width="3"/>
<path d="M42.68 44.5499C36.8994 50.2524 30.3312 53.9958 24.4446 55.489C18.52 56.9919 13.5835 56.1661 10.6052 53.228C7.62684 50.2899 6.78969 45.4201 8.31315 39.5756C9.82684 33.7686 13.6215 27.2891 19.4022 21.5866C25.1828 15.884 31.751 12.1406 37.6376 10.6474C43.5622 9.14454 48.4987 9.97038 51.477 12.9084C54.4554 15.8465 55.2925 20.7164 53.769 26.5608C52.2554 32.3679 48.4607 38.8473 42.68 44.5499Z" stroke="#6927DA" stroke-width="3"/>
<path d="M42.6798 21.5865C48.4604 27.2891 52.2551 33.7685 53.7688 39.5755C55.2922 45.42 54.4551 50.2899 51.4768 53.2279C48.4985 56.166 43.5619 56.9918 37.6373 55.489C31.7508 53.9957 25.1826 50.2524 19.4019 44.5498C13.6212 38.8472 9.82657 32.3678 8.31288 26.5608C6.78942 20.7163 7.62657 15.8464 10.6049 12.9084C13.5832 9.9703 18.5198 9.14446 24.4443 10.6473C30.3309 12.1406 36.8991 15.8839 42.6798 21.5865Z" stroke="#6927DA" stroke-width="3"/>
</svg>
