<svg width="47" height="47" viewBox="0 0 47 47" fill="none" xmlns="http://www.w3.org/2000/svg">
<g clip-path="url(#clip0_15_852)">
<path d="M38.1875 8.8125V14.6875H8.8125V8.8125H38.1875ZM38.1875 5.875H8.8125C8.03343 5.875 7.28626 6.18449 6.73537 6.73537C6.18449 7.28626 5.875 8.03343 5.875 8.8125V14.6875C5.875 15.4666 6.18449 16.2137 6.73537 16.7646C7.28626 17.3155 8.03343 17.625 8.8125 17.625H38.1875C38.9666 17.625 39.7137 17.3155 40.2646 16.7646C40.8155 16.2137 41.125 15.4666 41.125 14.6875V8.8125C41.125 8.03343 40.8155 7.28626 40.2646 6.73537C39.7137 6.18449 38.9666 5.875 38.1875 5.875V5.875Z" fill="white"/>
<path d="M14.6875 23.5V38.1875H8.8125V23.5H14.6875ZM14.6875 20.5625H8.8125C8.03343 20.5625 7.28626 20.872 6.73537 21.4229C6.18449 21.9738 5.875 22.7209 5.875 23.5V38.1875C5.875 38.9666 6.18449 39.7137 6.73537 40.2646C7.28626 40.8155 8.03343 41.125 8.8125 41.125H14.6875C15.4666 41.125 16.2137 40.8155 16.7646 40.2646C17.3155 39.7137 17.625 38.9666 17.625 38.1875V23.5C17.625 22.7209 17.3155 21.9738 16.7646 21.4229C16.2137 20.872 15.4666 20.5625 14.6875 20.5625Z" fill="white"/>
<path d="M38.1875 23.5V38.1875H23.5V23.5H38.1875ZM38.1875 20.5625H23.5C22.7209 20.5625 21.9738 20.872 21.4229 21.4229C20.872 21.9738 20.5625 22.7209 20.5625 23.5V38.1875C20.5625 38.9666 20.872 39.7137 21.4229 40.2646C21.9738 40.8155 22.7209 41.125 23.5 41.125H38.1875C38.9666 41.125 39.7137 40.8155 40.2646 40.2646C40.8155 39.7137 41.125 38.9666 41.125 38.1875V23.5C41.125 22.7209 40.8155 21.9738 40.2646 21.4229C39.7137 20.872 38.9666 20.5625 38.1875 20.5625Z" fill="white"/>
</g>
<defs>
<clipPath id="clip0_15_852">
<rect width="47" height="47" fill="white"/>
</clipPath>
</defs>
</svg>
